<svg width="32" height="32" viewBox="0 0 32 32" fill="none" xmlns="http://www.w3.org/2000/svg">
<g id="Iconly/Light-Outline/Filter">
<g id="Group 10">
<path id="Fill 1" fill-rule="evenodd" clip-rule="evenodd" d="M13.4404 24.791H5.03906C4.48706 24.791 4.03906 24.343 4.03906 23.791C4.03906 23.239 4.48706 22.791 5.03906 22.791H13.4404C13.9924 22.791 14.4404 23.239 14.4404 23.791C14.4404 24.343 13.9924 24.791 13.4404 24.791Z" fill="black"/>
<path id="Fill 3" fill-rule="evenodd" clip-rule="evenodd" d="M25.5875 11.8672H17.1875C16.6355 11.8672 16.1875 11.4192 16.1875 10.8672C16.1875 10.3152 16.6355 9.86719 17.1875 9.86719H25.5875C26.1395 9.86719 26.5875 10.3152 26.5875 10.8672C26.5875 11.4192 26.1395 11.8672 25.5875 11.8672Z" fill="black"/>
<g id="Group 7">
<mask id="mask0" mask-type="alpha" maskUnits="userSpaceOnUse" x="4" y="6" width="9" height="9">
<path id="Clip 6" fill-rule="evenodd" clip-rule="evenodd" d="M4 6.66797H12.3011V14.9234H4V6.66797Z" fill="white"/>
</mask>
<g mask="url(#mask0)">
<path id="Fill 5" fill-rule="evenodd" clip-rule="evenodd" d="M8.15067 8.66797C6.96533 8.66797 6 9.62264 6 10.7973C6 11.9706 6.96533 12.924 8.15067 12.924C9.33733 12.924 10.3013 11.9706 10.3013 10.7973C10.3013 9.62264 9.33733 8.66797 8.15067 8.66797ZM8.15067 14.924C5.86267 14.924 4 13.0733 4 10.7973C4 8.5213 5.86267 6.66797 8.15067 6.66797C10.44 6.66797 12.3013 8.5213 12.3013 10.7973C12.3013 13.0733 10.44 14.924 8.15067 14.924Z" fill="black"/>
</g>
</g>
<path id="Fill 8" fill-rule="evenodd" clip-rule="evenodd" d="M23.1832 21.6113C21.9966 21.6113 21.0312 22.566 21.0312 23.7393C21.0312 24.914 21.9966 25.8673 23.1832 25.8673C24.3686 25.8673 25.3326 24.914 25.3326 23.7393C25.3326 22.566 24.3686 21.6113 23.1832 21.6113ZM23.1832 27.8673C20.8939 27.8673 19.0312 26.0153 19.0312 23.7393C19.0312 21.4633 20.8939 19.6113 23.1832 19.6113C25.4712 19.6113 27.3326 21.4633 27.3326 23.7393C27.3326 26.0153 25.4712 27.8673 23.1832 27.8673Z" fill="black"/>
</g>
</g>
</svg>
