<svg width="30" height="30" viewBox="0 0 30 30" fill="none" xmlns="http://www.w3.org/2000/svg">
<g clip-path="url(#clip0)">
<path d="M23.9606 27.1552H0.809436C0.276678 27.1552 -0.110736 26.6493 0.0284017 26.1347L5.28668 11.7186C5.38185 11.3659 5.70202 11.1207 6.06771 11.1207H29.2189C29.7517 11.1207 30 11.6297 30 12.1412L24.7417 26.5572C24.6465 26.91 24.3263 27.1552 23.9606 27.1552Z" fill="#009FE5"/>
<path d="M26.0007 6.46554H12.931L10.3448 2.84485H0.895862C0.401379 2.84485 0 3.24571 0 3.74071V25.8414C0.0356897 25.8424 0.0713793 25.8445 0.106034 25.8466L5.28621 11.7186C5.38138 11.3654 5.70155 11.1207 6.06724 11.1207H26.8966V7.3614C26.8966 6.8664 26.4952 6.46554 26.0007 6.46554Z" fill="#007CB2"/>
</g>
<defs>
<clipPath id="clip0">
<rect width="30" height="30" fill="white"/>
</clipPath>
</defs>
</svg>
