<svg width="190" height="190" viewBox="0 0 190 190" fill="none" xmlns="http://www.w3.org/2000/svg">
<g clip-path="url(#clip0)">
<path d="M99.1046 0H90.8984V15.8436H99.1046V0Z" fill="#7595A3"/>
<path d="M55.0147 9.61211L47.918 13.7324L55.8731 27.434L62.9697 23.3137L55.0147 9.61211Z" fill="#7595A3"/>
<path d="M21.6906 39.9385L17.5703 47.0352L31.2719 54.9902L35.3922 47.8936L21.6906 39.9385Z" fill="#7595A3"/>
<path d="M23.7968 82.9434H7.95312V91.1495H23.7968V82.9434Z" fill="#7595A3"/>
<path d="M31.2211 119.158L17.5195 127.113L21.6398 134.21L35.3414 126.255L31.2211 119.158Z" fill="#7595A3"/>
<path d="M158.722 119.097L154.602 126.193L168.303 134.148L172.423 127.052L158.722 119.097Z" fill="#7595A3"/>
<path d="M182.043 82.9434H166.199V91.1495H182.043V82.9434Z" fill="#7595A3"/>
<path d="M168.311 39.9746L154.609 47.9297L158.73 55.0264L172.431 47.0713L168.311 39.9746Z" fill="#7595A3"/>
<path d="M135.002 9.61287L127.047 23.3145L134.144 27.4348L142.099 13.7332L135.002 9.61287Z" fill="#7595A3"/>
<path d="M154.462 83.07C154.462 50.2459 127.824 23.5449 94.9999 23.5449C92.7275 23.5449 90.4551 23.671 88.1827 23.9237C61.103 26.8902 39.1362 48.7309 35.9169 75.874C34.2759 89.7612 37.3686 103.269 44.8173 114.947C51.5712 125.552 56.5581 137.419 59.588 150.233H47.5317V158.439H61.2923C61.7344 160.964 62.1131 163.489 62.3652 166.077H51.4452V174.283H63.06C63.186 176.745 63.2493 179.207 63.2493 181.732V190.001H126.751V180.028C126.751 178.134 126.814 176.177 126.877 174.283H138.555V166.077H127.635C127.95 163.552 128.329 160.964 128.834 158.439H142.469V150.232H130.665C133.884 137.671 139.186 125.173 146.256 113.116C151.621 104.027 154.462 93.6119 154.462 83.07ZM118.608 180.027V181.794H71.4555V181.668C71.4555 179.206 71.3922 176.745 71.2661 174.283H118.734C118.671 176.177 118.608 178.133 118.608 180.027ZM119.428 166.077H70.6347C70.382 163.489 70.0033 160.964 69.6245 158.439H120.565C120.06 160.964 119.744 163.552 119.428 166.077ZM122.269 150.233H68.0463C64.827 135.778 59.3353 122.396 51.7606 110.466C45.3854 100.429 42.7342 88.8143 44.1225 76.8214C46.8997 53.4657 65.8366 34.6555 89.1922 32.0671C91.1492 31.8777 93.1057 31.7517 95.0627 31.7517C123.342 31.7517 146.318 54.7913 146.318 83.0706C146.318 92.1602 143.856 101.124 139.248 108.951C131.359 122.333 125.615 136.22 122.269 150.233Z" fill="#7595A3"/>
<path d="M114.629 74.5483C112.988 67.2262 106.929 61.1665 99.606 59.5249C93.4202 58.136 87.1077 59.5249 82.2474 63.4383C77.3872 67.3517 74.6094 73.1594 74.6094 79.3452H82.8155C82.8155 75.6212 84.4565 72.2126 87.3604 69.8768C90.327 67.4783 94.0516 66.6576 97.839 67.5411C102.131 68.4879 105.666 72.0859 106.676 76.3781C107.749 81.049 106.171 85.7832 102.447 88.7504C95.0612 94.6841 90.8317 103.016 90.8317 111.601V111.727H98.9746V111.537C98.9746 105.478 102.068 99.481 107.496 95.1256C113.683 90.2659 116.397 82.3757 114.629 74.5483Z" fill="#7595A3"/>
<path d="M99.1046 116.715H90.8984V124.668H99.1046V116.715Z" fill="#7595A3"/>
</g>
<defs>
<clipPath id="clip0">
<rect width="190" height="190" fill="white"/>
</clipPath>
</defs>
</svg>
