<svg width="32" height="32" viewBox="0 0 32 32" fill="none" xmlns="http://www.w3.org/2000/svg">
<circle cx="16" cy="16" r="15.5" stroke="#47606B"/>
<path d="M15.8585 21.4101C16.0925 21.2839 16.2384 21.0438 16.2384 20.7827V16.7173H24.2657C24.671 16.7173 25 16.396 25 16C25 15.6041 24.671 15.2828 24.2657 15.2828H16.2384V11.2173C16.2384 10.9553 16.0925 10.7152 15.8585 10.5899C15.6245 10.4628 15.3386 10.4714 15.1125 10.61L7.34267 15.3927C7.12924 15.5247 7 15.7533 7 16C7 16.2468 7.12924 16.4753 7.34267 16.6073L15.1125 21.39C15.2319 21.4627 15.368 21.5 15.5041 21.5C15.6255 21.5 15.7479 21.4694 15.8585 21.4101Z" fill="#47606B"/>
</svg>
