<svg width="30" height="30" viewBox="0 0 30 30" fill="none" xmlns="http://www.w3.org/2000/svg">
<g id="Iconly/Light/3 User">
<g id="3 User">
<path id="Stroke 1" d="M22.3594 13.6216C24.1031 13.3766 25.4456 11.8816 25.4494 10.0704C25.4494 8.28539 24.1481 6.80539 22.4419 6.52539" stroke="white" stroke-width="1.5" stroke-linecap="round" stroke-linejoin="round"/>
<path id="Stroke 3" d="M24.6602 17.8125C26.3489 18.065 27.5277 18.6562 27.5277 19.875C27.5277 20.7137 26.9727 21.2587 26.0752 21.6012" stroke="white" stroke-width="1.5" stroke-linecap="round" stroke-linejoin="round"/>
<path id="Stroke 5" fill-rule="evenodd" clip-rule="evenodd" d="M14.8589 18.3301C10.8414 18.3301 7.41016 18.9388 7.41016 21.3701C7.41016 23.8001 10.8202 24.4263 14.8589 24.4263C18.8764 24.4263 22.3064 23.8238 22.3064 21.3913C22.3064 18.9588 18.8977 18.3301 14.8589 18.3301Z" stroke="white" stroke-width="1.5" stroke-linecap="round" stroke-linejoin="round"/>
<path id="Stroke 7" fill-rule="evenodd" clip-rule="evenodd" d="M14.8597 14.86C17.496 14.86 19.6335 12.7237 19.6335 10.0863C19.6335 7.45 17.496 5.3125 14.8597 5.3125C12.2235 5.3125 10.086 7.45 10.086 10.0863C10.076 12.7138 12.1972 14.8513 14.8247 14.86H14.8597Z" stroke="white" stroke-width="1.5" stroke-linecap="round" stroke-linejoin="round"/>
<path id="Stroke 9" d="M7.35563 13.6216C5.61062 13.3766 4.26938 11.8816 4.26562 10.0704C4.26562 8.28539 5.56687 6.80539 7.27313 6.52539" stroke="white" stroke-width="1.5" stroke-linecap="round" stroke-linejoin="round"/>
<path id="Stroke 11" d="M5.055 17.8125C3.36625 18.065 2.1875 18.6562 2.1875 19.875C2.1875 20.7137 2.7425 21.2587 3.64 21.6012" stroke="white" stroke-width="1.5" stroke-linecap="round" stroke-linejoin="round"/>
</g>
</g>
</svg>
