<svg width="200" height="200" viewBox="0 0 200 200" fill="none" xmlns="http://www.w3.org/2000/svg">
<path d="M195.941 150.236L125.212 20.0258C119.874 11.0391 110.445 5.67188 99.9924 5.67188C89.5392 5.67188 80.1111 11.0391 74.7728 20.0258C74.7326 20.0945 74.6986 20.1633 74.6584 20.232L4.16462 150.03C-1.28812 159.206 -1.39124 170.226 3.88376 179.505C9.17087 188.79 18.6959 194.329 29.3783 194.329H170.216C180.898 194.329 190.815 188.79 196.101 179.505C201.376 170.227 201.274 159.206 195.941 150.236ZM88.2619 65.2926C88.2619 58.8137 93.5138 53.5621 99.9924 53.5621C106.471 53.5621 111.723 58.8141 111.723 65.2926V112.215C111.723 118.693 106.471 123.945 99.9924 123.945C93.5138 123.945 88.2619 118.693 88.2619 112.215V65.2926ZM99.9924 170.868C90.2896 170.868 82.3963 162.975 82.3963 153.272C82.3963 143.569 90.2892 135.676 99.9924 135.676C109.695 135.676 117.588 143.569 117.588 153.272C117.588 162.975 109.695 170.868 99.9924 170.868Z" fill="#7595A3"/>
</svg>
