<svg width="129" height="20" viewBox="0 0 129 20" fill="none" xmlns="http://www.w3.org/2000/svg">
<rect width="1.33333" height="9.77778" rx="0.666667" transform="matrix(1 0 0 -1 0 14.6667)" fill="#002E66"/>
<rect width="1.33333" height="20" rx="0.666667" transform="matrix(1 0 0 -1 2.66602 20)" fill="#002E66"/>
<rect width="1.33333" height="8" rx="0.666667" transform="matrix(1 0 0 -1 5.33398 13.7778)" fill="#002E66"/>
<rect width="1.33333" height="16" rx="0.666667" transform="matrix(1 0 0 -1 8 17.7778)" fill="#002E66"/>
<rect width="1.33333" height="14.2222" rx="0.666667" transform="matrix(1 0 0 -1 10.666 17.3333)" fill="#002E66"/>
<rect width="1.33333" height="9.33333" rx="0.666667" transform="matrix(1 0 0 -1 13.334 14.2222)" fill="#002E66"/>
<rect width="1.33333" height="9.33333" rx="0.666667" transform="matrix(1 0 0 -1 16 14.2222)" fill="#002E66"/>
<rect width="1.33333" height="15.5556" rx="0.666667" transform="matrix(1 0 0 -1 18.666 17.7778)" fill="#002E66"/>
<rect width="1.33333" height="6.66667" rx="0.666667" transform="matrix(1 0 0 -1 21.334 13.3333)" fill="#002E66"/>
<rect width="1.33333" height="14.6667" rx="0.666667" transform="matrix(1 0 0 -1 24 17.3333)" fill="#002E66"/>
<rect width="1.33333" height="9.33333" rx="0.666667" transform="matrix(1 0 0 -1 26.666 14.2222)" fill="#002E66"/>
<rect width="1.33333" height="20" rx="0.666667" transform="matrix(1 0 0 -1 29.334 20)" fill="#002E66"/>
<rect width="1.33333" height="9.33333" rx="0.666667" transform="matrix(1 0 0 -1 32 14.2222)" fill="#002E66"/>
<rect width="1.33333" height="9.33333" rx="0.666667" transform="matrix(1 0 0 -1 34.666 14.2222)" fill="#002E66"/>
<rect width="1.33333" height="6.66667" rx="0.666667" transform="matrix(1 0 0 -1 37.334 13.3333)" fill="#002E66"/>
<rect width="1.33333" height="15.5556" rx="0.666667" transform="matrix(1 0 0 -1 40 17.7778)" fill="#002E66"/>
<rect width="1.33333" height="12" rx="0.666667" transform="matrix(1 0 0 -1 42.666 16)" fill="#002E66"/>
<rect width="1.33333" height="17.3333" rx="0.666667" transform="matrix(1 0 0 -1 45.334 18.2222)" fill="#002E66"/>
<rect width="1.33333" height="9.77778" rx="0.666667" transform="matrix(1 0 0 -1 48 14.6667)" fill="#002E66"/>
<rect width="1.33333" height="14.6667" rx="0.666667" transform="matrix(1 0 0 -1 50.666 17.3333)" fill="#002E66"/>
<rect width="1.33333" height="12" rx="0.666667" transform="matrix(1 0 0 -1 53.334 16)" fill="#002E66"/>
<rect width="1.33333" height="13.3333" rx="0.666667" transform="matrix(1 0 0 -1 56 16.4443)" fill="#002E66"/>
<rect width="1.33333" height="9.77778" rx="0.666667" transform="matrix(1 0 0 -1 58.666 14.6667)" fill="#002E66"/>
<rect width="1.33333" height="13.7778" rx="0.666667" transform="matrix(1 0 0 -1 61.334 16.4443)" fill="#002E66"/>
<rect width="1.33333" height="6.66667" rx="0.666667" transform="matrix(1 0 0 -1 64 13.3333)" fill="#002E66"/>
<rect width="1.33333" height="9.77778" rx="0.666667" transform="matrix(1 0 0 -1 66.666 14.6667)" fill="#002E66"/>
<rect width="1.33333" height="9.33333" rx="0.666667" transform="matrix(1 0 0 -1 69.334 14.2222)" fill="#002E66"/>
<rect width="1.33333" height="9.77778" rx="0.666667" transform="matrix(1 0 0 -1 72 14.6667)" fill="#002E66"/>
<rect width="1.33333" height="16" rx="0.666667" transform="matrix(1 0 0 -1 74.666 17.7778)" fill="#002E66" fill-opacity="0.2"/>
<rect width="1.33333" height="9.33333" rx="0.666667" transform="matrix(1 0 0 -1 77.334 14.2222)" fill="#002E66" fill-opacity="0.2"/>
<rect width="1.33333" height="9.33333" rx="0.666667" transform="matrix(1 0 0 -1 101 14.2222)" fill="#002E66" fill-opacity="0.2"/>
<rect width="1.33333" height="9.33333" rx="0.666667" transform="matrix(1 0 0 -1 125 14.2222)" fill="#002E66" fill-opacity="0.2"/>
<rect width="1.33333" height="6.66667" rx="0.666667" transform="matrix(1 0 0 -1 80 13.3333)" fill="#002E66" fill-opacity="0.2"/>
<rect width="1.33333" height="6.66667" rx="0.666667" transform="matrix(1 0 0 -1 103.666 13.3333)" fill="#002E66" fill-opacity="0.2"/>
<rect width="1.33333" height="6.66667" rx="0.666667" transform="matrix(1 0 0 -1 127.666 13.3333)" fill="#002E66" fill-opacity="0.2"/>
<rect width="1.33333" height="13.3333" rx="0.666667" transform="matrix(1 0 0 -1 82.666 16.4443)" fill="#002E66" fill-opacity="0.2"/>
<rect width="1.33333" height="13.3333" rx="0.666667" transform="matrix(1 0 0 -1 106.332 16.4443)" fill="#002E66" fill-opacity="0.2"/>
<rect width="1.33333" height="9.33333" rx="0.666667" transform="matrix(1 0 0 -1 85.334 14.2222)" fill="#002E66" fill-opacity="0.2"/>
<rect width="1.33333" height="9.33333" rx="0.666667" transform="matrix(1 0 0 -1 109 14.2222)" fill="#002E66" fill-opacity="0.2"/>
<rect width="1.33333" height="9.77778" rx="0.666667" transform="matrix(1 0 0 -1 88 14.6667)" fill="#002E66" fill-opacity="0.2"/>
<rect width="1.33333" height="9.77778" rx="0.666667" transform="matrix(1 0 0 -1 111.666 14.6667)" fill="#002E66" fill-opacity="0.2"/>
<rect width="1.33333" height="6.66667" rx="0.666667" transform="matrix(1 0 0 -1 90.666 13.3333)" fill="#002E66" fill-opacity="0.2"/>
<rect width="1.33333" height="6.66667" rx="0.666667" transform="matrix(1 0 0 -1 114.332 13.3333)" fill="#002E66" fill-opacity="0.2"/>
<rect width="1.33333" height="9.77778" rx="0.666667" transform="matrix(1 0 0 -1 93.334 14.6667)" fill="#002E66" fill-opacity="0.2"/>
<rect width="1.33333" height="9.77778" rx="0.666667" transform="matrix(1 0 0 -1 117 14.6667)" fill="#002E66" fill-opacity="0.2"/>
<rect width="1.33333" height="13.7778" rx="0.666667" transform="matrix(1 0 0 -1 96 16.4443)" fill="#002E66" fill-opacity="0.2"/>
<rect width="1.33333" height="13.7778" rx="0.666667" transform="matrix(1 0 0 -1 119.666 16.4443)" fill="#002E66" fill-opacity="0.2"/>
<rect width="1.33333" height="9.33333" rx="0.666667" transform="matrix(1 0 0 -1 98.666 14.2222)" fill="#002E66" fill-opacity="0.2"/>
<rect width="1.33333" height="9.33333" rx="0.666667" transform="matrix(1 0 0 -1 122.332 14.2222)" fill="#002E66" fill-opacity="0.2"/>
</svg>
