<svg width="18" height="18" viewBox="0 0 18 18" fill="none" xmlns="http://www.w3.org/2000/svg">
<g clip-path="url(#clip0)">
<path d="M12.0339 9.38648C13.0058 8.41456 14.1214 7.06782 14.1214 5.26544C14.1214 2.44102 11.8236 0.143188 8.99917 0.143188C6.17475 0.143188 3.87695 2.44102 3.87695 5.26547C3.87695 7.06782 4.99255 8.41463 5.96448 9.38652C6.41741 9.83946 6.4198 10.6742 6.40805 11.313H6.32088C6.11799 11.313 5.95353 11.4775 5.95353 11.6803V16.1933C5.95353 16.3962 6.11799 16.5607 6.32088 16.5607H6.80945V17.4893C6.80945 17.6922 6.97395 17.8567 7.17679 17.8567H10.8216C11.0244 17.8567 11.1889 17.6922 11.1889 17.4893V16.5607H11.6775C11.8804 16.5607 12.0449 16.3962 12.0449 16.1933V11.6803C12.0449 11.4775 11.8804 11.313 11.6775 11.313H11.5903C11.5786 10.6741 11.581 9.83946 12.0339 9.38648ZM10.4542 17.122H7.5441V16.5607H10.4542V17.122ZM6.68822 15.826V15.0338H10.1574C10.3602 15.0338 10.5247 14.8694 10.5247 14.6665C10.5247 14.4635 10.3602 14.2991 10.1574 14.2991H6.68822V12.0477H11.3101V12.8399H8.0142C7.81131 12.8399 7.64685 13.0044 7.64685 13.2072C7.64685 13.4101 7.81131 13.5746 8.0142 13.5746H11.3101V15.826H6.68822ZM9.69419 11.313L11.0217 7.23581C11.0669 7.09681 11.0255 6.94418 10.916 6.84716C10.8066 6.75022 10.65 6.7274 10.5174 6.78905L9.90126 7.07561L9.34264 6.18557C9.27449 6.07698 9.1551 6.0113 9.02646 6.01354C8.89825 6.0153 8.78023 6.08381 8.7151 6.19424L8.1906 7.08355L7.46696 6.78284C7.33372 6.72751 7.1805 6.75521 7.07519 6.85373C6.96983 6.95222 6.93185 7.1032 6.97802 7.23985L8.35635 11.313H7.14285C7.15597 10.5795 7.14818 9.53125 6.48394 8.86698C5.55808 7.94116 4.61157 6.78923 4.61157 5.26547C4.61157 2.84616 6.57982 0.877919 8.99909 0.877919C11.4184 0.877919 13.3866 2.84616 13.3866 5.26547C13.3866 6.78923 12.4402 7.94116 11.5143 8.86698C10.8501 9.53122 10.8423 10.5795 10.8554 11.313H9.69419ZM9.02473 10.9959L7.9339 7.77247L8.20379 7.88462C8.37306 7.95489 8.56808 7.8898 8.66113 7.73199L9.0413 7.08744L9.45126 7.74062C9.54967 7.8974 9.74936 7.95644 9.91735 7.87845L10.0617 7.8113L9.02473 10.9959Z" fill="#002E66"/>
<path d="M17.6328 4.1958H16.0216C15.8188 4.1958 15.6543 4.36026 15.6543 4.56315C15.6543 4.76603 15.8188 4.9305 16.0216 4.9305H17.6328C17.8356 4.9305 18.0001 4.76603 18.0001 4.56315C18.0001 4.36023 17.8356 4.1958 17.6328 4.1958Z" fill="#002E66"/>
<path d="M15.563 3.39817C15.639 3.39817 15.7156 3.37466 15.7814 3.32599L16.77 2.59357C16.9331 2.47283 16.9673 2.24276 16.8465 2.07973C16.7257 1.9167 16.4956 1.88246 16.3327 2.00324L15.344 2.73559C15.181 2.85637 15.1467 3.08644 15.2675 3.24944C15.3396 3.34671 15.4506 3.39817 15.563 3.39817Z" fill="#002E66"/>
<path d="M16.7719 6.53255L15.7833 5.8002C15.6202 5.67946 15.3902 5.71373 15.2695 5.87669C15.1487 6.03975 15.183 6.26978 15.346 6.39053L16.3346 7.12295C16.4004 7.17162 16.477 7.19513 16.553 7.19513C16.6654 7.19513 16.7764 7.1437 16.8484 7.04639C16.9692 6.8834 16.9349 6.65333 16.7719 6.53255Z" fill="#002E66"/>
<path d="M2.34584 4.56315C2.34584 4.36026 2.18134 4.1958 1.97849 4.1958H0.367346C0.164461 4.1958 0 4.36026 0 4.56315C0 4.76603 0.164461 4.9305 0.367346 4.9305H1.97849C2.18138 4.9305 2.34584 4.766 2.34584 4.56315Z" fill="#002E66"/>
<path d="M2.65476 2.73555L1.66609 2.0032C1.50306 1.88246 1.27303 1.91673 1.15228 2.07972C1.0315 2.24275 1.06577 2.47278 1.2288 2.59353L2.21747 3.32595C2.28323 3.37462 2.35986 3.39813 2.43582 3.39813C2.54827 3.39813 2.65924 3.3467 2.73128 3.24939C2.8521 3.0864 2.81783 2.85633 2.65476 2.73555Z" fill="#002E66"/>
<path d="M2.21749 5.80023L1.22881 6.53257C1.06574 6.65336 1.03151 6.88343 1.15229 7.04642C1.22433 7.14369 1.3353 7.19516 1.44775 7.19516C1.52371 7.19516 1.60038 7.17165 1.6661 7.12298L2.65478 6.39056C2.8178 6.26981 2.85208 6.03974 2.73129 5.87675C2.61058 5.71372 2.38048 5.67944 2.21749 5.80023Z" fill="#002E66"/>
</g>
<defs>
<clipPath id="clip0">
<rect width="18" height="18" fill="white"/>
</clipPath>
</defs>
</svg>
