<svg width="18" height="18" viewBox="0 0 18 18" fill="none" xmlns="http://www.w3.org/2000/svg">
<path d="M14.8045 14.5843C14.6589 14.5843 14.5409 14.7024 14.5409 14.848V17.327C14.5409 17.4073 14.4756 17.4726 14.3953 17.4726H12.9779V12.2801C12.9779 12.1345 12.8598 12.0164 12.7142 12.0164C12.5686 12.0164 12.4506 12.1345 12.4506 12.2801V17.4726H9.59639L10.4241 16.5621C10.5145 16.4626 10.5571 16.3209 10.5381 16.1828C10.5378 16.1802 10.5373 16.1775 10.5369 16.1748L9.74858 11.5178L9.96096 11.1981C10.0784 11.2815 10.1688 11.3618 10.3385 11.3618C10.511 11.3618 10.6723 11.2652 10.7517 11.1062V11.1062L11.5832 9.43977L13.4773 10.1733C13.5458 10.2027 14.5408 10.6508 14.5408 11.834V13.6175C14.5408 13.7631 14.6588 13.8812 14.8045 13.8812C14.9501 13.8812 15.0681 13.7631 15.0681 13.6175V11.834C15.0681 10.275 13.7333 9.70836 13.6765 9.68498C13.6748 9.68428 13.6731 9.68361 13.6715 9.68298L10.5191 8.46214V7.72281C11.0198 7.33342 11.3669 6.75619 11.4541 6.09764C11.7037 6.08006 11.9354 5.98683 12.1245 5.82416C12.3716 5.61171 12.5133 5.30251 12.5133 4.97598C12.5133 4.705 12.4156 4.44625 12.2413 4.24463V3.26788C12.2413 1.46598 10.7754 0 8.97346 0C7.17156 0 5.70561 1.46598 5.70561 3.26788V4.27022C5.52952 4.4698 5.43375 4.71547 5.43375 4.97594C5.43375 5.30258 5.57543 5.61175 5.82254 5.82423C6.01158 5.98683 6.24308 6.07996 6.49266 6.09757C6.58051 6.76846 6.9378 7.3672 7.48114 7.76183V8.46214L4.33216 9.68295C4.33051 9.68358 4.32886 9.68425 4.32721 9.68491C4.27036 9.70829 2.93555 10.275 2.93555 11.8339V17.3269C2.93555 17.698 3.23743 17.9999 3.60851 17.9999H6.12067C6.26629 17.9999 6.38434 17.8818 6.38434 17.7362C6.38434 17.5906 6.26629 17.4726 6.12067 17.4726H5.55335V12.2801C5.55335 12.1345 5.4353 12.0164 5.28968 12.0164C5.14406 12.0164 5.02601 12.1345 5.02601 12.2801V17.4726H3.60854C3.52828 17.4726 3.46296 17.4073 3.46296 17.327V11.834C3.46296 10.6468 4.46467 10.1997 4.52619 10.1734L6.41879 9.4397L7.25031 11.1062C7.32987 11.2655 7.49141 11.3618 7.66361 11.3618C7.83239 11.3618 7.92197 11.2827 8.04111 11.1981L8.25349 11.5178L7.46525 16.1749C7.4648 16.1775 7.46441 16.1801 7.46402 16.1828C7.44497 16.3208 7.48761 16.4625 7.57807 16.5621L8.40575 17.4727H7.35124C7.20563 17.4727 7.08757 17.5907 7.08757 17.7363C7.08757 17.8819 7.20563 18 7.35124 18H14.3953C14.7664 18 15.0683 17.6981 15.0683 17.327V14.848C15.0682 14.7024 14.9502 14.5843 14.8045 14.5843ZM11.0893 9.24852L10.3141 10.8021C10.2948 10.7884 9.88404 10.4965 9.38187 10.1399C9.59977 9.87096 9.34485 10.1856 10.3393 8.95809L11.0893 9.24852ZM9.53072 10.8926L9.3297 11.1952H8.67217L8.47114 10.8926L9.00095 10.5163L9.53072 10.8926ZM8.00845 8.54722V8.05377C8.3288 8.1829 8.67115 8.24277 9.00548 8.24277C9.35118 8.24277 9.69019 8.16908 9.99169 8.03725V8.54937L9.00095 9.77228L8.00845 8.54722ZM11.986 4.97598C11.9859 5.1487 11.9111 5.31214 11.7807 5.42433C11.6944 5.49851 11.5903 5.54593 11.4762 5.5645V4.38757C11.7792 4.43679 11.986 4.68816 11.986 4.97598ZM6.47086 5.5645C6.16437 5.51475 5.96109 5.26134 5.96109 4.97594C5.96109 4.69406 6.19478 4.46463 6.47086 4.40082V5.5645ZM6.48503 3.86353C6.40104 3.87316 6.30478 3.89591 6.23303 3.92031V3.26788C6.23303 1.75676 7.46237 0.527379 8.97349 0.527379C10.4846 0.527379 11.714 1.75676 11.714 3.26788V3.9022C11.6373 3.87889 11.5578 3.8635 11.4762 3.85625C11.4762 3.60183 11.4784 3.65091 10.6461 2.75607C10.4931 2.59161 10.2399 2.55716 10.0472 2.68305C9.12853 3.28314 8.00793 3.5846 6.97398 3.51035C6.74719 3.49337 6.54061 3.64275 6.48503 3.86353ZM6.99824 5.77209V4.12706V4.0404C8.13642 4.10706 9.32973 3.76893 10.2938 3.15155C10.6755 3.5614 10.8822 3.77638 10.9489 3.85815C10.9489 4.06501 10.9489 5.53528 10.9489 5.77206C10.9489 6.84246 10.0761 7.71536 9.00552 7.71536C7.80339 7.71539 6.99824 6.78284 6.99824 5.77209ZM7.68783 10.8021L6.91267 9.24852L7.66125 8.95859L8.61894 10.1407C8.13192 10.4865 7.73202 10.7707 7.68783 10.8021ZM7.99035 16.2317L8.75355 11.7225H9.24824L10.0114 16.2317L9.00091 17.3435L7.99035 16.2317Z" fill="#002E66"/>
</svg>
