<svg width="18" height="18" viewBox="0 0 18 18" fill="none" xmlns="http://www.w3.org/2000/svg">
<path d="M17.1 3.60002H13.2V2.40002C13.199 1.57195 12.5281 0.90105 11.7 0.900024H6.3C5.47192 0.90105 4.80103 1.57195 4.8 2.40002V3.60002H0.9C0.402979 3.60002 0 4.003 0 4.50002V11.178C0.0019043 11.5585 0.241699 11.897 0.6 12.0249V16.2C0.6 16.697 1.00298 17.1 1.5 17.1H16.5C16.997 17.1 17.4 16.697 17.4 16.2V12.0252C17.7583 11.8972 17.9982 11.5585 18 11.178V4.50002C18 4.003 17.597 3.60002 17.1 3.60002ZM5.4 2.40002C5.4 1.903 5.80298 1.50002 6.3 1.50002H11.7C12.197 1.50002 12.6 1.903 12.6 2.40002V3.60002H12V2.40002C12 2.23435 11.8657 2.10002 11.7 2.10002H6.3C6.13433 2.10002 6 2.23435 6 2.40002V3.60002H5.4V2.40002ZM11.4 3.60002H6.6V2.70002H11.4V3.60002ZM16.8 16.2C16.8 16.3657 16.6657 16.5 16.5 16.5H1.5C1.33433 16.5 1.2 16.3657 1.2 16.2V12.1281L7.8 13.0383V13.8C7.8 14.297 8.20298 14.7 8.7 14.7H9.3C9.79702 14.7 10.2 14.297 10.2 13.8V13.0383L16.8 12.1281V16.2ZM9.6 13.8C9.6 13.9657 9.46567 14.1 9.3 14.1H8.7C8.53433 14.1 8.4 13.9657 8.4 13.8V12C8.4 11.8343 8.53433 11.7 8.7 11.7H9.3C9.46567 11.7 9.6 11.8343 9.6 12V13.8ZM17.4 11.178C17.4001 11.3275 17.2901 11.4544 17.142 11.4753L17.0588 11.4867L10.2 12.4326V12C10.2 11.503 9.79702 11.1 9.3 11.1H8.7C8.20298 11.1 7.8 11.503 7.8 12V12.4326L0.858252 11.4753C0.710156 11.4545 0.599854 11.3277 0.6 11.178V4.50002C0.6 4.33435 0.734326 4.20002 0.9 4.20002H17.1C17.2657 4.20002 17.4 4.33435 17.4 4.50002V11.178Z" fill="#002E66"/>
</svg>
