<svg width="18" height="18" viewBox="0 0 18 18" fill="none" xmlns="http://www.w3.org/2000/svg">
<g clip-path="url(#clip0)">
<path d="M17.5277 13.8861L13.8844 11.4565C13.4221 11.1506 12.8023 11.2513 12.4605 11.6877L11.3993 13.0522C11.2629 13.2321 11.015 13.2842 10.8176 13.1746L10.6158 13.0634C9.94657 12.6986 9.11391 12.2445 7.43626 10.5662C5.75861 8.88797 5.30358 8.05468 4.93881 7.38671L4.82812 7.18483C4.71701 6.98756 4.76819 6.73859 4.94809 6.60111L6.31167 5.54019C6.74797 5.19834 6.84875 4.57877 6.54325 4.11629L4.11361 0.473024C3.80052 0.00207024 3.17237 -0.139307 2.68767 0.15206L1.16419 1.06722C0.685504 1.34864 0.33431 1.8044 0.184251 2.33902C-0.364352 4.33791 0.0483563 7.78771 5.13021 12.8702C9.17272 16.9124 12.1822 17.9994 14.2507 17.9994C14.7267 18.0014 15.2009 17.9395 15.6605 17.8152C16.1952 17.6654 16.651 17.3141 16.9323 16.8353L17.8483 15.3127C18.1401 14.8279 17.9988 14.1994 17.5277 13.8861ZM17.3315 15.005L16.4175 16.5284C16.2156 16.874 15.8877 17.1281 15.5027 17.2375C13.6573 17.7442 10.4334 17.3245 5.55463 12.4457C0.675838 7.56696 0.25624 4.34333 0.762872 2.49772C0.872402 2.11219 1.12683 1.78391 1.47285 1.58165L2.99633 0.66769C3.20664 0.541146 3.47927 0.602485 3.61513 0.806853L4.93495 2.78835L6.0427 4.4498C6.17536 4.65041 6.13177 4.91928 5.94252 5.06772L4.57862 6.12865C4.16356 6.44603 4.04503 7.02029 4.30058 7.47606L4.40888 7.67283C4.79223 8.37593 5.26885 9.25059 7.00889 10.9904C8.74894 12.7301 9.62332 13.2067 10.3261 13.5901L10.5232 13.6986C10.9789 13.9541 11.5532 13.8357 11.8706 13.4206L12.9315 12.0567C13.08 11.8675 13.3487 11.824 13.5494 11.9565L17.1924 14.3862C17.3969 14.5219 17.4582 14.7947 17.3315 15.005Z" fill="#002E66"/>
<path d="M10.2003 3.00162C13.0153 3.00475 15.2964 5.28595 15.2996 8.10088C15.2996 8.26654 15.4339 8.40082 15.5995 8.40082C15.7652 8.40082 15.8995 8.26654 15.8995 8.10088C15.896 4.95475 13.3465 2.40518 10.2003 2.40173C10.0347 2.40173 9.90039 2.53601 9.90039 2.70168C9.90039 2.86734 10.0347 3.00162 10.2003 3.00162Z" fill="#002E66"/>
<path d="M10.2003 4.80142C12.0217 4.80357 13.4977 6.27956 13.4999 8.10094C13.4999 8.26661 13.6342 8.40089 13.7998 8.40089C13.9655 8.40089 14.0997 8.26661 14.0997 8.10094C14.0972 5.94837 12.3529 4.204 10.2003 4.20154C10.0347 4.20154 9.90039 4.33582 9.90039 4.50148C9.90039 4.66715 10.0347 4.80142 10.2003 4.80142Z" fill="#002E66"/>
<path d="M10.2003 6.60111C11.0282 6.60209 11.6991 7.27299 11.7001 8.1009C11.7001 8.26656 11.8344 8.40084 12.0001 8.40084C12.1657 8.40084 12.3 8.26656 12.3 8.1009C12.2987 6.94183 11.3594 6.00252 10.2003 6.00122C10.0347 6.00122 9.90039 6.1355 9.90039 6.30116C9.90039 6.46683 10.0347 6.60111 10.2003 6.60111Z" fill="#002E66"/>
</g>
<defs>
<clipPath id="clip0">
<rect width="18" height="18" fill="white"/>
</clipPath>
</defs>
</svg>
