<svg width="18" height="18" viewBox="0 0 18 18" fill="none" xmlns="http://www.w3.org/2000/svg">
<path d="M17.8423 7.51453L9.10868 3.60934C9.03946 3.5783 8.9605 3.5783 8.89129 3.60934L5.35043 5.19259C5.21626 5.2526 5.15611 5.40998 5.21612 5.54428C5.27613 5.67859 5.43365 5.73874 5.56795 5.67873L8.99991 4.14409L12.1418 5.54895V7.51027C10.4744 6.90053 9.0705 6.85425 9.00733 6.85247C9.00238 6.85233 8.99744 6.85233 8.9925 6.85247C8.92479 6.85425 7.31449 6.9074 5.49105 7.65213C4.76363 7.94903 4.0991 8.31872 3.516 8.75075C3.47233 8.78316 3.44047 8.82765 3.42317 8.87764L0.918585 7.7576L4.42978 6.18753C4.56409 6.12752 4.62424 5.97014 4.56409 5.83583C4.50408 5.70152 4.34656 5.64138 4.21239 5.70139L0.157515 7.51453C0.0616602 7.55737 0 7.65268 0 7.7576C0 7.86265 0.0616602 7.95782 0.157515 8.00067L3.4082 9.45442V10.7295C3.4082 10.8766 3.52754 10.9958 3.67448 10.9958C3.82156 10.9958 3.94076 10.8766 3.94076 10.7295V9.28743C3.94076 9.28729 3.94076 9.28702 3.94076 9.28688V9.10025C4.46205 8.72809 5.05064 8.40702 5.69237 8.14514C7.36118 7.46358 8.88126 7.38983 9.00005 7.38503C9.11637 7.38956 10.5361 7.4574 12.1418 8.07922V10.7252C11.7525 10.8403 11.4674 11.2012 11.4674 11.6275C11.4674 12.0192 11.708 12.3556 12.0493 12.4969L11.8631 12.987C10.648 13.1962 9.68586 13.484 8.99991 13.8446C7.41996 13.0146 4.7742 12.7801 3.94089 12.725V11.9781C3.94089 11.831 3.82156 11.7118 3.67462 11.7118C3.52754 11.7118 3.40834 11.831 3.40834 11.9781V12.9766C3.40834 13.119 3.52053 13.2363 3.66294 13.2426C3.69769 13.2441 7.15835 13.4058 8.86821 14.3795C8.909 14.4027 8.95446 14.4144 9.00005 14.4144C9.04551 14.4144 9.09096 14.4027 9.13188 14.3794C9.70674 14.0517 10.5687 13.7738 11.6422 13.5681L11.4849 13.9825C11.4537 14.0644 11.4648 14.1562 11.5145 14.2283C11.5642 14.3003 11.6462 14.3434 11.7337 14.3434H13.0828C13.1704 14.3434 13.2523 14.3003 13.302 14.2283C13.3517 14.1562 13.3628 14.0644 13.3318 13.9825L13.091 13.349C13.8156 13.2661 14.3311 13.2427 14.337 13.2425C14.4794 13.2363 14.5918 13.119 14.5918 12.9765V11.978C14.5918 11.831 14.4724 11.7117 14.3255 11.7117C14.1784 11.7117 14.0592 11.831 14.0592 11.978V12.7253C13.8106 12.742 13.3976 12.7751 12.8959 12.8357L12.7672 12.4969C13.1083 12.3556 13.3491 12.0192 13.3491 11.6275C13.3491 11.2011 13.064 10.8403 12.6745 10.7252V8.30485C13.1747 8.53432 13.6391 8.80033 14.0592 9.10025V9.28688V9.28743V10.7295C14.0592 10.8766 14.1784 10.9958 14.3255 10.9958C14.4726 10.9958 14.5918 10.8766 14.5918 10.7295V9.45442L17.8424 8.00067C17.9383 7.95782 18 7.86265 18 7.7576C18 7.65268 17.9382 7.55737 17.8423 7.51453ZM12.1196 13.8109L12.4081 13.0516L12.6966 13.8109H12.1196ZM12.8164 11.6275C12.8164 11.8526 12.6333 12.0356 12.4081 12.0356C12.183 12.0356 12 11.8526 12 11.6275C12 11.4023 12.183 11.2192 12.4081 11.2192C12.6333 11.2192 12.8164 11.4023 12.8164 11.6275ZM14.5767 8.87764C14.5594 8.82765 14.5275 8.78316 14.4838 8.75075C13.9455 8.35181 13.337 8.00685 12.6744 7.72244V5.78708L17.0812 7.7576L14.5767 8.87764Z" fill="#002E66"/>
</svg>
