<svg width="20" height="20" viewBox="0 0 20 20" fill="none" xmlns="http://www.w3.org/2000/svg">
<path d="M0 1.75781V17.6562H6.48438C7.71866 17.6562 8.70285 17.9033 9.41406 18.3899V18.2422C9.41406 17.2729 8.62549 16.4844 7.65625 16.4844H1.17188V1.75781H0Z" fill="white"/>
<path d="M12.3438 16.4844C11.3745 16.4844 10.5859 17.2729 10.5859 18.2422C11.0759 17.8752 11.6847 17.6562 12.3438 17.6562H20V16.4844H12.3438Z" fill="white"/>
<path d="M6.48438 18.8281H0V20H9.29916C8.97751 19.2479 7.99103 18.8281 6.48438 18.8281Z" fill="white"/>
<path d="M12.3438 1.75781C11.3745 1.75781 10.5859 2.54639 10.5859 3.51562V15.8998C11.0759 15.5313 11.6849 15.3125 12.3438 15.3125H20V1.75781H12.3438ZM11.7578 14.1406V2.92969H18.8281V14.1406H11.7578Z" fill="white"/>
<path d="M10.6875 20H20.0009V18.8281H12.3446C11.5807 18.8281 10.9295 19.3179 10.6875 20Z" fill="white"/>
<path d="M12.9297 4.10156H17.6562V12.9688H12.9297V4.10156Z" fill="white"/>
<path d="M4.6875 9.41406H7.07031V12.9688H4.6875V9.41406Z" fill="white"/>
<path d="M2.34375 15.3125H7.65625C8.31512 15.3125 8.9241 15.5313 9.41406 15.8998V1.75781C9.41406 0.788574 8.62549 0 7.65625 0H2.34375V15.3125ZM8.24219 14.1406H3.51562V8.24219H8.24219V14.1406ZM8.24219 1.17188V7.07031H3.51562V1.17188H8.24219Z" fill="white"/>
<path d="M4.6875 2.34375H7.07031V5.89844H4.6875V2.34375Z" fill="white"/>
</svg>
