<svg width="25" height="25" viewBox="0 0 25 25" fill="none" xmlns="http://www.w3.org/2000/svg">
<circle cx="12.5" cy="12.5" r="12.5" fill="#FFA400"/>
<path fill-rule="evenodd" clip-rule="evenodd" d="M12.5 25C19.4036 25 25 19.4036 25 12.5C25 5.59644 19.4036 0 12.5 0V25Z" fill="#E99704"/>
<path d="M9.3125 19V7.50781H11.1172C12.1641 7.50781 12.9297 7.57552 13.4141 7.71094C14.1016 7.89323 14.6484 8.23177 15.0547 8.72656C15.4609 9.22135 15.6641 9.80469 15.6641 10.4766C15.6641 10.9141 15.5703 11.3125 15.3828 11.6719C15.2005 12.026 14.901 12.3594 14.4844 12.6719C15.1823 13 15.6927 13.4115 16.0156 13.9062C16.3385 14.3958 16.5 14.9766 16.5 15.6484C16.5 16.2943 16.3333 16.8828 16 17.4141C15.6667 17.9453 15.237 18.3438 14.7109 18.6094C14.1849 18.8698 13.4583 19 12.5312 19H9.3125ZM11.5 9.59375V12.0156H11.9766C12.5078 12.0156 12.901 11.9036 13.1562 11.6797C13.4167 11.4557 13.5469 11.151 13.5469 10.7656C13.5469 10.4062 13.4245 10.1224 13.1797 9.91406C12.9349 9.70052 12.5625 9.59375 12.0625 9.59375H11.5ZM11.5 13.9688V16.9141H12.0469C12.9531 16.9141 13.5625 16.7995 13.875 16.5703C14.1927 16.3411 14.3516 16.0078 14.3516 15.5703C14.3516 15.0755 14.1667 14.6849 13.7969 14.3984C13.4271 14.112 12.8125 13.9688 11.9531 13.9688H11.5Z" fill="white"/>
<rect x="7" y="10" width="11" height="1" fill="white"/>
<rect x="7" y="15" width="11" height="1" fill="white"/>
</svg>
