<svg width="11" height="20" viewBox="0 0 11 20" fill="none" xmlns="http://www.w3.org/2000/svg">
<path d="M2.3125 16V4.50781H4.11719C5.16406 4.50781 5.92969 4.57552 6.41406 4.71094C7.10156 4.89323 7.64844 5.23177 8.05469 5.72656C8.46094 6.22135 8.66406 6.80469 8.66406 7.47656C8.66406 7.91406 8.57031 8.3125 8.38281 8.67188C8.20052 9.02604 7.90104 9.35938 7.48438 9.67188C8.18229 10 8.69271 10.4115 9.01562 10.9062C9.33854 11.3958 9.5 11.9766 9.5 12.6484C9.5 13.2943 9.33333 13.8828 9 14.4141C8.66667 14.9453 8.23698 15.3438 7.71094 15.6094C7.1849 15.8698 6.45833 16 5.53125 16H2.3125ZM4.5 6.59375V9.01562H4.97656C5.50781 9.01562 5.90104 8.90365 6.15625 8.67969C6.41667 8.45573 6.54688 8.15104 6.54688 7.76562C6.54688 7.40625 6.42448 7.1224 6.17969 6.91406C5.9349 6.70052 5.5625 6.59375 5.0625 6.59375H4.5ZM4.5 10.9688V13.9141H5.04688C5.95312 13.9141 6.5625 13.7995 6.875 13.5703C7.19271 13.3411 7.35156 13.0078 7.35156 12.5703C7.35156 12.0755 7.16667 11.6849 6.79688 11.3984C6.42708 11.112 5.8125 10.9688 4.95312 10.9688H4.5Z" fill="#FFA400"/>
<rect y="7" width="11" height="1" fill="#FFA400"/>
<rect y="12" width="11" height="1" fill="#FFA400"/>
</svg>
