<svg width="25" height="25" viewBox="0 0 25 25" fill="none" xmlns="http://www.w3.org/2000/svg">
<g clip-path="url(#clip0)">
<path d="M19.2773 10.7533C18.8236 9.90292 17.9427 9.375 16.9794 9.375H8.02162C7.05831 9.375 6.17737 9.90297 5.72367 10.7533L2.39018 17.0037C2.18979 17.3801 2.08398 17.8038 2.08398 18.229V21.8748C2.08398 23.0237 3.01883 23.9581 4.1673 23.9581H20.8337C21.9821 23.9581 22.917 23.0238 22.917 21.8748V18.229C22.917 17.8038 22.8112 17.3801 22.6108 17.0032L19.2773 10.7533ZM21.8753 21.8747C21.8753 22.4489 21.4084 22.9164 20.8337 22.9164H4.1673C3.59255 22.9164 3.12567 22.4489 3.12567 21.8747V18.2289C3.12567 17.9741 3.18978 17.7193 3.30979 17.4935L6.64328 11.2436C6.91491 10.7334 7.44385 10.4165 8.02162 10.4165H16.9794C17.5572 10.4165 18.0861 10.7334 18.3577 11.2436L21.6912 17.493C21.8112 17.7193 21.8753 17.9741 21.8753 18.2289V21.8747Z" fill="white"/>
<path d="M9.37366 14.5833C9.94894 14.5833 10.4153 14.1169 10.4153 13.5416C10.4153 12.9664 9.94894 12.5 9.37366 12.5C8.79839 12.5 8.33203 12.9664 8.33203 13.5416C8.33203 14.1169 8.79839 14.5833 9.37366 14.5833Z" fill="white"/>
<path d="M9.37366 17.7083C9.94894 17.7083 10.4153 17.2419 10.4153 16.6666C10.4153 16.0914 9.94894 15.625 9.37366 15.625C8.79839 15.625 8.33203 16.0914 8.33203 16.6666C8.33203 17.2419 8.79839 17.7083 9.37366 17.7083Z" fill="white"/>
<path d="M9.37366 20.8333C9.94894 20.8333 10.4153 20.3669 10.4153 19.7916C10.4153 19.2164 9.94894 18.75 9.37366 18.75C8.79839 18.75 8.33203 19.2164 8.33203 19.7916C8.33203 20.3669 8.79839 20.8333 9.37366 20.8333Z" fill="white"/>
<path d="M12.5006 20.8333C13.0759 20.8333 13.5423 20.3669 13.5423 19.7916C13.5423 19.2164 13.0759 18.75 12.5006 18.75C11.9253 18.75 11.459 19.2164 11.459 19.7916C11.459 20.3669 11.9253 20.8333 12.5006 20.8333Z" fill="white"/>
<path d="M15.6237 20.8333C16.1989 20.8333 16.6653 20.3669 16.6653 19.7916C16.6653 19.2164 16.1989 18.75 15.6237 18.75C15.0484 18.75 14.582 19.2164 14.582 19.7916C14.582 20.3669 15.0484 20.8333 15.6237 20.8333Z" fill="white"/>
<path d="M12.5006 17.7083C13.0759 17.7083 13.5423 17.2419 13.5423 16.6666C13.5423 16.0914 13.0759 15.625 12.5006 15.625C11.9253 15.625 11.459 16.0914 11.459 16.6666C11.459 17.2419 11.9253 17.7083 12.5006 17.7083Z" fill="white"/>
<path d="M15.6237 17.7083C16.1989 17.7083 16.6653 17.2419 16.6653 16.6666C16.6653 16.0914 16.1989 15.625 15.6237 15.625C15.0484 15.625 14.582 16.0914 14.582 16.6666C14.582 17.2419 15.0484 17.7083 15.6237 17.7083Z" fill="white"/>
<path d="M12.5006 14.5833C13.0759 14.5833 13.5423 14.1169 13.5423 13.5416C13.5423 12.9664 13.0759 12.5 12.5006 12.5C11.9253 12.5 11.459 12.9664 11.459 13.5416C11.459 14.1169 11.9253 14.5833 12.5006 14.5833Z" fill="white"/>
<path d="M15.6237 14.5833C16.1989 14.5833 16.6653 14.1169 16.6653 13.5416C16.6653 12.9664 16.1989 12.5 15.6237 12.5C15.0484 12.5 14.582 12.9664 14.582 13.5416C14.582 14.1169 15.0484 14.5833 15.6237 14.5833Z" fill="white"/>
<path d="M24.5723 6.30005C21.3487 2.90964 17.0611 1.04199 12.4993 1.04199C7.938 1.04199 3.65038 2.90964 0.427239 6.3001C0.143455 6.59863 0 6.99062 0 7.3826C0 7.77454 0.143406 8.16643 0.427239 8.46476L2.82793 10.9911C3.39252 11.5841 4.39445 11.5841 4.95904 10.9911C5.76216 10.1463 6.67513 9.44995 7.66793 8.92408C8.16538 8.66774 8.48681 8.1281 8.48222 7.61795L8.8454 4.88055C11.4617 4.04336 13.5628 4.04389 16.1547 4.88006L16.5128 7.5493C16.5128 8.12658 16.819 8.65353 17.3195 8.92867C18.3174 9.45713 19.2303 10.1534 20.034 10.9977C20.3162 11.2953 20.6947 11.4586 21.0995 11.4586C21.5039 11.4586 21.8823 11.2953 22.1646 10.9983L24.5724 8.46535C24.8471 8.17644 24.9908 7.79993 24.9997 7.42064C25.009 7.01601 24.8653 6.60825 24.5723 6.30005ZM23.8176 7.7471L21.4097 10.2805C21.2414 10.457 20.956 10.4565 20.7887 10.28C19.9073 9.35381 18.9043 8.58937 17.8138 8.01208C17.6515 7.92258 17.5544 7.74964 17.5498 7.4806L17.1439 4.41972C17.118 4.22392 16.9832 4.05962 16.7965 3.9955C15.2773 3.4752 13.8959 3.21529 12.5104 3.21529C11.1254 3.21529 9.73694 3.4752 8.2045 3.99502C8.0168 4.05859 7.8815 4.22338 7.85557 4.41972L7.44513 7.54925C7.44513 7.73948 7.34289 7.92004 7.18571 8.0009C6.08813 8.58224 5.08512 9.34673 4.20417 10.2729C4.03631 10.4489 3.75047 10.4484 3.58265 10.2734L1.18196 7.74705C0.993781 7.54969 0.993781 7.21557 1.18196 7.01821C4.20676 3.83584 8.22588 2.08362 12.4993 2.08362C16.7727 2.08362 20.7923 3.83579 23.8176 7.01825C24.0057 7.21556 24.0057 7.54974 23.8176 7.7471Z" fill="white"/>
</g>
<defs>
<clipPath id="clip0">
<rect width="25" height="25" fill="white"/>
</clipPath>
</defs>
</svg>
